<?xml version="1.0" encoding="UTF-8"?>
<svg version="1.1" xmlns="http://www.w3.org/2000/svg" width="626" height="626">
<path d="M0 0 C206.58 0 413.16 0 626 0 C626 206.58 626 413.16 626 626 C419.42 626 212.84 626 0 626 C0 419.42 0 212.84 0 0 Z " fill="#0265C8" transform="translate(0,0)"/>
<path d="M0 0 C2.06930787 -0.0021653 4.13806314 -0.02028678 6.20727539 -0.03930664 C17.58202997 -0.08958378 28.14359366 1.15705663 38.91235352 4.87280273 C39.67990967 5.13625488 40.44746582 5.39970703 41.23828125 5.67114258 C70.74993358 16.10217024 90.68578784 35.06206296 104.15063477 63.07202148 C112.54644917 81.06427313 115.49586088 97.69890245 115.37792969 117.40942383 C115.37708179 119.41146329 115.37756172 121.41350368 115.3792572 123.4155426 C115.38011225 128.80925299 115.36256651 134.20276015 115.34153533 139.59642363 C115.32268614 145.248486 115.32101162 150.90055386 115.31745911 156.55264282 C115.30816274 167.23721848 115.28358176 177.92170122 115.25341064 188.6062361 C115.21349591 203.05728245 115.19739228 217.5083545 115.17990398 231.95944214 C115.1517588 254.70146516 115.09197318 277.44329219 115.03735352 300.18530273 C85.66735352 300.18530273 56.29735352 300.18530273 26.03735352 300.18530273 C25.99868164 282.63213867 25.99868164 282.63213867 25.95922852 264.72436523 C25.93404608 257.28684876 25.90786362 249.84935778 25.87719727 242.41186523 C25.8287648 230.62085173 25.78427909 218.82992301 25.76635742 207.03881836 C25.75328248 198.4488994 25.72617028 189.85915426 25.68274045 181.26933324 C25.66025603 176.72809492 25.64443493 172.18706994 25.64546967 167.64577103 C25.64622407 163.35614344 25.62796595 159.06698509 25.59618568 154.77747917 C25.58778753 153.21765604 25.58586652 151.65777964 25.59155083 150.09794426 C25.65990835 128.42361393 20.65599949 107.89858426 5.84985352 91.43530273 C-4.18481528 81.89672993 -16.92814997 79.696269 -30.20483398 79.94702148 C-46.02851084 80.95039393 -61.83454852 89.00128468 -72.96264648 100.18530273 C-86.01843268 115.50409187 -88.41728217 133.56101764 -88.39501953 152.94287109 C-88.40406231 154.5608341 -88.41439557 156.17879032 -88.42590332 157.79673767 C-88.45320456 162.13870486 -88.46272077 166.48054115 -88.46875739 170.82258296 C-88.47821194 175.37897102 -88.50442037 179.93526395 -88.52876282 184.49159241 C-88.57223837 193.09715381 -88.60090118 201.70269654 -88.6240862 210.30833393 C-88.65632919 221.95301928 -88.7117708 233.59759351 -88.76583195 245.24219418 C-88.85025321 263.5565304 -88.90395272 281.87082411 -88.96264648 300.18530273 C-118.33264648 300.18530273 -147.70264648 300.18530273 -177.96264648 300.18530273 C-177.96264648 202.83530273 -177.96264648 105.48530273 -177.96264648 5.18530273 C-150.24264648 5.18530273 -122.52264648 5.18530273 -93.96264648 5.18530273 C-93.46764648 25.48030273 -93.46764648 25.48030273 -92.96264648 46.18530273 C-89.99264648 42.55530273 -87.02264648 38.92530273 -83.96264648 35.18530273 C-65.12144576 17.05959064 -43.3810319 6.44707042 -17.96264648 1.18530273 C-17.20298584 1.00805664 -16.4433252 0.83081055 -15.66064453 0.64819336 C-10.49621749 -0.23785801 -5.22766146 -0.00061078 0 0 Z " fill="#FDFEFE" transform="translate(413.962646484375,228.814697265625)"/>
<path d="M0 0 C30.36 0 60.72 0 92 0 C92 97.35 92 194.7 92 295 C61.64 295 31.28 295 0 295 C0 197.65 0 100.3 0 0 Z " fill="#FCFDFD" transform="translate(94,234)"/>
<path d="M0 0 C10.93869893 8.18603292 18.89670011 20.34802572 21 34 C22.08421121 49.59715265 19.9112444 62.33426584 10 75 C9.51144531 75.67417969 9.02289063 76.34835938 8.51953125 77.04296875 C0.57029918 87.19050697 -11.5047276 92.83397228 -24 95 C-38.48351039 96.44383904 -52.11171156 93.07269294 -63.5625 83.9609375 C-73.9074928 75.00143481 -82.13728588 63.99758672 -83.15454102 49.85083008 C-84.0049899 32.14158546 -81.14868479 19.7931476 -69.3125 6.0390625 C-50.75978214 -13.63025412 -21.64926949 -15.34676834 0 0 Z " fill="#FCFDFD" transform="translate(171,96)"/>
<path d="M0 0 C0.33 0 0.66 0 1 0 C1 13.2 1 26.4 1 40 C-12.53 40 -26.06 40 -40 40 C-36.81379083 38.40689541 -33.75319803 37.13770258 -30.4375 35.875 C-17.29870772 30.34455945 -8.03420845 21.78022968 -2.5546875 8.49609375 C-1.60366031 5.67959015 -0.74152634 2.8779519 0 0 Z " fill="#000000" transform="translate(625,586)"/>
<path d="M0 0 C13.2 0 26.4 0 40 0 C37.08303012 1.45848494 34.47540515 2.55397578 31.4375 3.625 C20.03580737 8.21921144 10.0963025 16.54327467 5.13134766 28.00537109 C3.50838781 32.26948246 2.19640505 36.59915328 1 41 C0.67 41 0.34 41 0 41 C0 27.47 0 13.94 0 0 Z " fill="#000000" transform="translate(0,0)"/>
<path d="M0 0 C13.53 0 27.06 0 41 0 C41 13.53 41 27.06 41 41 C40.67 41 40.34 41 40 41 C39.78085937 40.16597656 39.56171875 39.33195312 39.3359375 38.47265625 C37.23058975 31.00123924 34.75531782 25.12824422 30 19 C28.88625 17.453125 28.88625 17.453125 27.75 15.875 C20.1719739 7.95251817 10.7681685 2.94398794 0 1 C0 0.67 0 0.34 0 0 Z " fill="#000000" transform="translate(585,0)"/>
<path d="M0 0 C1.61102614 3.22205228 2.90350921 6.33510084 4.1875 9.6875 C9.9173921 23.48292937 19.56578849 31.15430256 33 37 C35.34054533 37.82468879 37.57743426 38.44941688 40 39 C40 39.33 40 39.66 40 40 C26.8 40 13.6 40 0 40 C0 26.8 0 13.6 0 0 Z " fill="#000000" transform="translate(0,586)"/>
<path d="M0 0 C0.33 0 0.66 0 1 0 C1.33 11.22 1.66 22.44 2 34 C3.485 33.505 3.485 33.505 5 33 C5 37.38968456 2.87194899 38.76905739 0 42 C-1.20891936 37.74852814 -1.02497788 33.6763576 -0.87890625 29.296875 C-0.85529526 28.45908508 -0.83168427 27.62129517 -0.80735779 26.75811768 C-0.73093142 24.08856369 -0.64681692 21.41931528 -0.5625 18.75 C-0.50925825 16.93751483 -0.45651799 15.12501486 -0.40429688 13.3125 C-0.2753448 8.87480737 -0.13949826 4.43737313 0 0 Z " fill="#1468D6" transform="translate(321,234)"/>
<path d="M0 0 C1.90747183 2.86120775 3.00353706 5.35254993 4.1875 8.5625 C4.55230469 9.53316406 4.91710937 10.50382812 5.29296875 11.50390625 C6 14 6 14 5 16 C4.01 15.34 3.02 14.68 2 14 C2 12.68 2 11.36 2 10 C1.34 10 0.68 10 0 10 C0 6.7 0 3.4 0 0 Z " fill="#DCEBED" transform="translate(520,298)"/>
<path d="M0 0 C3.94144164 1.667533 6.98001951 3.98001951 10 7 C10.375 10.3125 10.375 10.3125 10 13 C7.64385834 10.73112285 5.45612317 8.39457939 3.375 5.875 C1.13925085 3.07604479 1.13925085 3.07604479 -1 1 C-0.67 0.67 -0.34 0.34 0 0 Z " fill="#1965CA" transform="translate(174,97)"/>
<path d="M0 0 C0.66 0.33 1.32 0.66 2 1 C1.67 1.99 1.34 2.98 1 4 C-0.66352123 4.67447709 -2.33068857 5.33998365 -4 6 C-6.2760705 7.91623447 -6.2760705 7.91623447 -8.3125 10.125 C-9.00988281 10.84945312 -9.70726563 11.57390625 -10.42578125 12.3203125 C-10.94527344 12.87460938 -11.46476562 13.42890625 -12 14 C-12 11 -12 11 -10.390625 9.0625 C-9.68421875 8.381875 -8.9778125 7.70125 -8.25 7 C-7.55390625 6.319375 -6.8578125 5.63875 -6.140625 4.9375 C-4.16985224 3.15373487 -2.15501099 1.55316107 0 0 Z " fill="#DFEDF4" transform="translate(111,94)"/>
<path d="M0 0 C2.64 0 5.28 0 8 0 C8 0.66 8 1.32 8 2 C9.32 2 10.64 2 12 2 C12 2.66 12 3.32 12 4 C12.66 4 13.32 4 14 4 C13.67 4.66 13.34 5.32 13 6 C8.71 4.35 4.42 2.7 0 1 C0 0.67 0 0.34 0 0 Z " fill="#2B6EC3" transform="translate(454,234)"/>
<path d="M0 0 C0.66 0 1.32 0 2 0 C2.66 1.98 3.32 3.96 4 6 C4.66 6 5.32 6 6 6 C5.67 7.32 5.34 8.64 5 10 C2.59927045 7.11912454 0.52708963 4.43595166 -1 1 C-0.67 0.67 -0.34 0.34 0 0 Z " fill="#1A6ECE" transform="translate(506,268)"/>
<path d="M0 0 C3.3 0 6.6 0 10 0 C7.14521674 1.90318884 5.58058692 2.4619099 2.3125 3.125 C1.50425781 3.29257813 0.69601562 3.46015625 -0.13671875 3.6328125 C-0.75160156 3.75398437 -1.36648438 3.87515625 -2 4 C-2 3.34 -2 2.68 -2 2 C-1.34 2 -0.68 2 0 2 C0 1.34 0 0.68 0 0 Z " fill="#1365C6" transform="translate(376,232)"/>
<path d="M0 0 C0.66 0 1.32 0 2 0 C2 0.66 2 1.32 2 2 C3.32 2 4.64 2 6 2 C6 2.66 6 3.32 6 4 C6.66 4 7.32 4 8 4 C7.67 5.32 7.34 6.64 7 8 C4.36 6.02 1.72 4.04 -1 2 C-0.67 1.34 -0.34 0.68 0 0 Z " fill="#E6EEF0" transform="translate(412,312)"/>
<path d="M0 0 C1.65 0 3.3 0 5 0 C5 0.66 5 1.32 5 2 C6.98 2.66 8.96 3.32 11 4 C11 4.66 11 5.32 11 6 C6.80639551 5.32902328 3.59665648 3.1441606 0 1 C0 0.67 0 0.34 0 0 Z " fill="#1E68C7" transform="translate(469,240)"/>
<path d="M0 0 C2.72426311 2.35277269 3.8141763 4.62496331 5 8 C2.525 7.01 2.525 7.01 0 6 C0 4.02 0 2.04 0 0 Z " fill="#1E6BBE" transform="translate(426,328)"/>
<path d="M0 0 C0.66 0.33 1.32 0.66 2 1 C1.01 2.485 1.01 2.485 0 4 C-1.9453125 4.29296875 -1.9453125 4.29296875 -4.125 4.1875 C-5.40375 4.125625 -6.6825 4.06375 -8 4 C-5.31143836 2.20762558 -3.0466145 1.01553817 0 0 Z " fill="#D2E5EC" transform="translate(374,236)"/>
<path d="M0 0 C0.33 0 0.66 0 1 0 C1.25 5.625 1.25 5.625 -1 9 C-1.66 9 -2.32 9 -3 9 C-2.01 6.03 -1.02 3.06 0 0 Z " fill="#3A77C2" transform="translate(331,343)"/>
<path d="M0 0 C-0.33 1.32 -0.66 2.64 -1 4 C-3.31 3.34 -5.62 2.68 -8 2 C-4.91190305 0.23537317 -3.76687864 0 0 0 Z " fill="#DFEAEB" transform="translate(408,308)"/>
<path d="M0 0 C1.32 0.33 2.64 0.66 4 1 C4 2.98 4 4.96 4 7 C2 5.1875 2 5.1875 0 3 C0 2.01 0 1.02 0 0 Z " fill="#246AC7" transform="translate(180,103)"/>
</svg>
